<svg width="10" height="14" viewBox="0 0 10 14" fill="none" xmlns="http://www.w3.org/2000/svg">
<path d="M4.26562 13.3203C2.94531 11.6699 0 7.73438 0 5.5C0 2.80859 2.1582 0.625 4.875 0.625C7.56641 0.625 9.75 2.80859 9.75 5.5C9.75 7.73438 6.7793 11.6699 5.45898 13.3203C5.1543 13.7012 4.57031 13.7012 4.26562 13.3203ZM4.875 7.125C5.76367 7.125 6.5 6.41406 6.5 5.5C6.5 4.61133 5.76367 3.875 4.875 3.875C3.96094 3.875 3.25 4.61133 3.25 5.5C3.25 6.41406 3.96094 7.125 4.875 7.125Z" fill="#333333"/>
</svg>
