<svg width="14" height="14" viewBox="0 0 14 14" fill="none" xmlns="http://www.w3.org/2000/svg">
<path d="M6.25586 1.1582C10.166 0.396484 13.5684 3.36719 13.5684 7.15039V7.68359C13.5938 8.87695 12.8066 10.0195 11.6387 10.2988C10.4961 10.5781 9.45508 10.1211 8.8457 9.33398C8.36328 9.71484 7.75391 9.96875 7.09375 9.96875C5.36719 9.96875 4.02148 8.4707 4.27539 6.71875C4.40234 5.67773 5.16406 4.78906 6.12891 4.43359C6.94141 4.1543 7.70312 4.25586 8.3125 4.56055C8.36328 4.4082 8.51562 4.28125 8.71875 4.28125H9.53125C9.73438 4.28125 9.9375 4.45898 9.9375 4.6875V7.73438C9.9375 8.29297 10.3691 8.75 10.9531 8.75C11.5117 8.75 11.9688 8.29297 11.9688 7.73438V7.32812C11.9688 4.99219 10.2422 2.88477 7.93164 2.65625C5.26562 2.40234 3.03125 4.50977 3.03125 7.125C3.03125 9.35938 4.65625 11.2129 6.81445 11.543C7.19531 11.5938 7.5 11.9492 7.5 12.3301V12.3555C7.5 12.8379 7.04297 13.2188 6.56055 13.1426C3.25977 12.6855 0.822266 9.48633 1.50781 5.90625C1.99023 3.54492 3.89453 1.64062 6.25586 1.1582ZM7.06836 8.36914C7.75391 8.36914 8.28711 7.81055 8.28711 7.15039C8.28711 6.46484 7.72852 5.93164 7.06836 5.93164C6.38281 5.93164 5.84961 6.46484 5.84961 7.15039C5.84961 7.81055 6.38281 8.36914 7.06836 8.36914Z" fill="#333333"/>
</svg>
