<svg width="15" height="12" viewBox="0 0 15 12" fill="none" xmlns="http://www.w3.org/2000/svg">
<path d="M5.28125 6.125C4.36719 6.125 3.65625 5.41406 3.65625 4.5C3.65625 3.61133 4.36719 2.875 5.28125 2.875C6.16992 2.875 6.90625 3.61133 6.90625 4.5C6.90625 5.41406 6.16992 6.125 5.28125 6.125ZM11.7812 5.51562C12.1113 5.51562 12.3906 5.79492 12.3906 6.125C12.3906 6.48047 12.1113 6.73438 11.7812 6.73438H9.34375C8.98828 6.73438 8.73438 6.48047 8.73438 6.125C8.73438 5.79492 8.98828 5.51562 9.34375 5.51562H11.7812ZM6.09375 6.9375C7.21094 6.9375 8.125 7.85156 8.125 8.96875C8.125 9.19727 7.92188 9.375 7.71875 9.375H2.84375C2.61523 9.375 2.4375 9.19727 2.4375 8.96875C2.4375 7.85156 3.32617 6.9375 4.46875 6.9375H6.09375ZM11.7812 3.48438C12.1113 3.48438 12.3906 3.76367 12.3906 4.09375C12.3906 4.44922 12.1113 4.70312 11.7812 4.70312H9.34375C8.98828 4.70312 8.73438 4.44922 8.73438 4.09375C8.73438 3.76367 8.98828 3.48438 9.34375 3.48438H11.7812ZM13 0.4375C13.8887 0.4375 14.625 1.17383 14.625 2.0625V10.1875C14.625 11.1016 13.8887 11.8125 13 11.8125H1.625C0.710938 11.8125 0 11.1016 0 10.1875V2.0625C0 1.17383 0.710938 0.4375 1.625 0.4375H13ZM13.4062 10.1875V2.0625C13.4062 1.85938 13.2031 1.65625 13 1.65625H1.625C1.39648 1.65625 1.21875 1.85938 1.21875 2.0625V10.1875C1.21875 10.416 1.39648 10.5938 1.625 10.5938H13C13.2031 10.5938 13.4062 10.416 13.4062 10.1875Z" fill="#333333"/>
</svg>
