<svg width="14" height="14" viewBox="0 0 14 14" fill="none" xmlns="http://www.w3.org/2000/svg">
<path d="M12.9746 10.4512L12.3652 13.0156C12.2891 13.3965 11.9844 13.6504 11.6035 13.6504C5.20508 13.625 0 8.41992 0 2.02148C0 1.64062 0.228516 1.33594 0.609375 1.25977L3.17383 0.650391C3.5293 0.574219 3.91016 0.777344 4.0625 1.10742L5.25586 3.875C5.38281 4.20508 5.30664 4.58594 5.02734 4.78906L3.65625 5.90625C4.51953 7.6582 5.94141 9.08008 7.71875 9.94336L8.83594 8.57227C9.03906 8.31836 9.41992 8.2168 9.75 8.34375L12.5176 9.53711C12.8477 9.71484 13.0508 10.0957 12.9746 10.4512Z" fill="#333333"/>
</svg>
